<?xml version="1.0" encoding="UTF-8"?>
<!DOCTYPE svg PUBLIC "-//W3C//DTD SVG 1.1//EN" "http://www.w3.org/Graphics/SVG/1.1/DTD/svg11.dtd">
<svg xmlns="http://www.w3.org/2000/svg" version="1.1" width="426px" height="382px" style="shape-rendering:geometricPrecision; text-rendering:geometricPrecision; image-rendering:optimizeQuality; fill-rule:evenodd; clip-rule:evenodd" xmlns:xlink="http://www.w3.org/1999/xlink">
<g><path style="opacity:0.965" fill="#433e3c" d="M 192.5,0.5 C 193.5,0.5 194.5,0.5 195.5,0.5C 195.5,0.833333 195.5,1.16667 195.5,1.5C 188.176,2.26058 180.842,2.92725 173.5,3.5C 179.52,1.33098 185.853,0.330979 192.5,0.5 Z"/></g>
<g><path style="opacity:1" fill="#b6b4b4" d="M 195.5,1.5 C 195.5,1.16667 195.5,0.833333 195.5,0.5C 212.968,-0.210996 230.301,0.95567 247.5,4C 250.104,4.39034 252.438,5.22367 254.5,6.5C 240.5,6.5 226.5,6.5 212.5,6.5C 212.119,4.05815 212.786,3.39149 214.5,4.5C 215.386,3.67504 215.719,2.67504 215.5,1.5C 208.833,1.5 202.167,1.5 195.5,1.5 Z"/></g>
<g><path style="opacity:0.061" fill="#1f1d1c" d="M 173.5,3.5 C 170.05,4.5298 166.717,5.86313 163.5,7.5C 159.833,8.16667 156.167,8.83333 152.5,9.5C 159.058,6.31842 166.058,4.31842 173.5,3.5 Z"/></g>
<g><path style="opacity:1" fill="#eae9e9" d="M 163.5,7.5 C 166.833,7.5 170.167,7.5 173.5,7.5C 173.5,8.5 173.5,9.5 173.5,10.5C 171.139,10.3259 168.806,9.99255 166.5,9.5C 166.433,10.9587 166.766,12.2921 167.5,13.5C 166.833,13.5 166.167,13.5 165.5,13.5C 144.917,18.1284 126.584,27.6284 110.5,42C 108.21,43.7772 106.543,45.9438 105.5,48.5C 95.984,58.1825 88.984,69.5158 84.5,82.5C 83.441,77.3246 83.441,71.9913 84.5,66.5C 94.8829,47.9488 109.216,33.1154 127.5,22C 135.646,17.2601 143.98,13.0934 152.5,9.5C 156.167,8.83333 159.833,8.16667 163.5,7.5 Z"/></g>
<g><path style="opacity:1" fill="#403c3c" d="M 196.5,8.5 C 210.485,7.0505 224.485,7.71717 238.5,10.5C 239.953,11.8249 239.619,12.6582 237.5,13C 238.737,13.2321 239.737,13.7321 240.5,14.5C 235.485,13.9149 230.485,13.2482 225.5,12.5C 223.708,11.6909 221.708,11.1909 219.5,11C 220.634,9.98398 220.301,9.31732 218.5,9C 211.174,8.50034 203.841,8.33368 196.5,8.5 Z"/></g>
<g><path style="opacity:1" fill="#c8c7c8" d="M 195.5,1.5 C 202.167,1.5 208.833,1.5 215.5,1.5C 215.719,2.67504 215.386,3.67504 214.5,4.5C 212.786,3.39149 212.119,4.05815 212.5,6.5C 226.5,6.5 240.5,6.5 254.5,6.5C 259.072,7.3876 263.405,8.72093 267.5,10.5C 267.244,12.7925 267.577,14.9592 268.5,17C 266.512,17.1805 264.512,17.0138 262.5,16.5C 254.75,13.5624 246.75,11.5624 238.5,10.5C 224.485,7.71717 210.485,7.0505 196.5,8.5C 186.626,9.00842 176.959,10.6751 167.5,13.5C 166.766,12.2921 166.433,10.9587 166.5,9.5C 168.806,9.99255 171.139,10.3259 173.5,10.5C 173.5,9.5 173.5,8.5 173.5,7.5C 170.167,7.5 166.833,7.5 163.5,7.5C 166.717,5.86313 170.05,4.5298 173.5,3.5C 180.842,2.92725 188.176,2.26058 195.5,1.5 Z"/></g>
<g><path style="opacity:1" fill="#282424" d="M 196.5,8.5 C 203.841,8.33368 211.174,8.50034 218.5,9C 220.301,9.31732 220.634,9.98398 219.5,11C 221.708,11.1909 223.708,11.6909 225.5,12.5C 201.752,10.3927 178.752,13.5594 156.5,22C 155.244,22.4169 154.577,23.2502 154.5,24.5C 149.833,24.5 145.167,24.5 140.5,24.5C 148.481,20.0088 156.815,16.3422 165.5,13.5C 166.167,13.5 166.833,13.5 167.5,13.5C 176.959,10.6751 186.626,9.00842 196.5,8.5 Z"/></g>
<g><path style="opacity:1" fill="#514d4e" d="M 238.5,10.5 C 246.75,11.5624 254.75,13.5624 262.5,16.5C 265.142,17.8952 267.809,19.3952 270.5,21C 270.619,22.1448 270.952,23.3115 271.5,24.5C 270.5,24.5 269.5,24.5 268.5,24.5C 268.586,23.5041 268.252,22.6708 267.5,22C 258.688,18.7145 249.688,16.2145 240.5,14.5C 239.737,13.7321 238.737,13.2321 237.5,13C 239.619,12.6582 239.953,11.8249 238.5,10.5 Z"/></g>
<g><path style="opacity:0.076" fill="#23201f" d="M 192.5,0.5 C 192.5,0.166667 192.5,-0.166667 192.5,-0.5C 204.833,-0.5 217.167,-0.5 229.5,-0.5C 259.479,2.71355 286.479,13.3802 310.5,31.5C 310.5,32.1667 310.5,32.8333 310.5,33.5C 308.754,31.7484 306.754,30.4151 304.5,29.5C 293.158,21.3286 280.825,14.9953 267.5,10.5C 263.405,8.72093 259.072,7.3876 254.5,6.5C 252.438,5.22367 250.104,4.39034 247.5,4C 230.301,0.95567 212.968,-0.210996 195.5,0.5C 194.5,0.5 193.5,0.5 192.5,0.5 Z"/></g>
<g><path style="opacity:0.329" fill="#161413" d="M 152.5,9.5 C 143.98,13.0934 135.646,17.2601 127.5,22C 109.216,33.1154 94.8829,47.9488 84.5,66.5C 80.6247,73.2952 77.9581,80.6285 76.5,88.5C 74.8228,94.5843 74.1561,100.918 74.5,107.5C 74.4394,113.804 75.4394,119.804 77.5,125.5C 77.5,126.833 77.5,128.167 77.5,129.5C 69.6858,103.699 73.1858,79.3653 88,56.5C 104.562,34.1111 126.062,18.4444 152.5,9.5 Z"/></g>
<g><path style="opacity:1" fill="#b5b5b6" d="M 165.5,13.5 C 156.815,16.3422 148.481,20.0088 140.5,24.5C 139.508,24.3284 138.842,24.6618 138.5,25.5C 136.297,25.6036 134.297,26.2702 132.5,27.5C 124.279,32.7129 116.612,38.7129 109.5,45.5C 108.45,46.4288 108.45,47.0954 109.5,47.5C 108.71,48.4013 107.71,49.0679 106.5,49.5C 105.833,49.5 105.5,49.1667 105.5,48.5C 106.543,45.9438 108.21,43.7772 110.5,42C 126.584,27.6284 144.917,18.1284 165.5,13.5 Z"/></g>
<g><path style="opacity:1" fill="#aeafb1" d="M 267.5,10.5 C 280.825,14.9953 293.158,21.3286 304.5,29.5C 306.167,31.8333 308.167,33.8333 310.5,35.5C 310.326,37.861 309.993,40.1944 309.5,42.5C 303.399,36.7306 296.732,31.7306 289.5,27.5C 286.778,25.2267 283.778,24.8933 280.5,26.5C 280.804,25.8501 281.137,25.1835 281.5,24.5C 278.682,21.1315 276.349,21.1315 274.5,24.5C 273.5,24.5 272.5,24.5 271.5,24.5C 270.952,23.3115 270.619,22.1448 270.5,21C 267.809,19.3952 265.142,17.8952 262.5,16.5C 264.512,17.0138 266.512,17.1805 268.5,17C 267.577,14.9592 267.244,12.7925 267.5,10.5 Z"/></g>
<g><path style="opacity:1" fill="#959699" d="M 138.5,25.5 C 138.842,24.6618 139.508,24.3284 140.5,24.5C 145.167,24.5 149.833,24.5 154.5,24.5C 165.748,31.4235 176.415,39.0902 186.5,47.5C 182.801,49.4294 183.468,50.596 188.5,51C 186.256,51.0496 184.589,51.8829 183.5,53.5C 180.455,50.4534 177.122,47.7867 173.5,45.5C 166.86,41.8456 160.194,38.1789 153.5,34.5C 152.71,33.5987 151.71,32.9321 150.5,32.5C 146.5,30.1667 142.5,27.8333 138.5,25.5 Z"/></g>
<g><path style="opacity:1" fill="#f8f8f8" d="M 138.5,25.5 C 142.5,27.8333 146.5,30.1667 150.5,32.5C 144.355,33.4902 138.022,33.8235 131.5,33.5C 131.517,31.4352 131.85,29.4352 132.5,27.5C 134.297,26.2702 136.297,25.6036 138.5,25.5 Z"/></g>
<g><path style="opacity:1" fill="#f6f6f6" d="M 289.5,27.5 C 290.15,29.4352 290.483,31.4352 290.5,33.5C 283.978,33.8235 277.645,33.4902 271.5,32.5C 274.291,30.2651 277.291,28.2651 280.5,26.5C 283.778,24.8933 286.778,25.2267 289.5,27.5 Z"/></g>
<g><path style="opacity:1" fill="#89898c" d="M 280.5,26.5 C 277.291,28.2651 274.291,30.2651 271.5,32.5C 269.973,32.427 268.973,33.0937 268.5,34.5C 261.925,37.7397 255.592,41.4064 249.5,45.5C 246.328,47.2519 243.328,49.2519 240.5,51.5C 240.167,51.5 239.833,51.5 239.5,51.5C 240.29,50.2058 241.29,49.0391 242.5,48C 253.336,41.4162 264.003,34.5828 274.5,27.5C 275.776,26.3864 275.776,25.3864 274.5,24.5C 276.349,21.1315 278.682,21.1315 281.5,24.5C 281.137,25.1835 280.804,25.8501 280.5,26.5 Z"/></g>
<g><path style="opacity:1" fill="#f0f0f0" d="M 153.5,34.5 C 160.194,38.1789 166.86,41.8456 173.5,45.5C 165.01,46.6569 156.343,46.8236 147.5,46C 143.993,43.746 140.327,41.746 136.5,40C 134.167,39 132.5,37.3333 131.5,35C 138.826,34.5003 146.159,34.3337 153.5,34.5 Z"/></g>
<g><path style="opacity:1" fill="#d6d5d6" d="M 268.5,24.5 C 269.5,24.5 270.5,24.5 271.5,24.5C 272.5,24.5 273.5,24.5 274.5,24.5C 275.776,25.3864 275.776,26.3864 274.5,27.5C 264.003,34.5828 253.336,41.4162 242.5,48C 241.29,49.0391 240.29,50.2058 239.5,51.5C 237.533,51.2606 235.699,51.5939 234,52.5C 233.805,51.1807 233.972,49.8474 234.5,48.5C 244.773,39.0275 256.106,31.0275 268.5,24.5 Z"/></g>
<g><path style="opacity:1" fill="#f0f0f0" d="M 268.5,34.5 C 276.174,34.3336 283.841,34.5003 291.5,35C 279.575,46.3177 265.575,49.8177 249.5,45.5C 255.592,41.4064 261.925,37.7397 268.5,34.5 Z"/></g>
<g><path style="opacity:0.431" fill="#0f0e0c" d="M 225.5,12.5 C 230.485,13.2482 235.485,13.9149 240.5,14.5C 249.688,16.2145 258.688,18.7145 267.5,22C 268.252,22.6708 268.586,23.5041 268.5,24.5C 256.106,31.0275 244.773,39.0275 234.5,48.5C 231.395,51.2749 229.062,54.6082 227.5,58.5C 224.98,63.0783 223.647,68.0783 223.5,73.5C 222.375,78.7027 222.542,84.036 224,89.5C 225.414,90.4132 226.914,90.4132 228.5,89.5C 229.549,97.4192 231.215,105.086 233.5,112.5C 234.694,119.608 236.36,126.608 238.5,133.5C 238.263,134.791 238.596,135.791 239.5,136.5C 240.854,142.871 243.521,148.538 247.5,153.5C 248.529,156.891 250.529,159.557 253.5,161.5C 254.167,162.5 254.833,163.5 255.5,164.5C 253.637,166.861 251.637,169.027 249.5,171C 251.709,173.708 254.376,175.874 257.5,177.5C 259.822,179.664 262.489,181.331 265.5,182.5C 267.297,183.393 268.63,184.726 269.5,186.5C 268.5,186.5 267.5,186.5 266.5,186.5C 259.464,181.549 252.631,176.215 246,170.5C 241.875,165.699 238.542,160.365 236,154.5C 228.53,129.845 223.696,104.678 221.5,79C 221.213,63.9083 226.88,51.5749 238.5,42C 247.328,35.7519 256.328,29.7519 265.5,24C 229.17,10.0374 192.836,10.0374 156.5,24C 168.845,31.3428 180.345,39.8428 191,49.5C 197.463,58.0559 200.63,67.7226 200.5,78.5C 198.17,104.316 193.337,129.65 186,154.5C 183.167,160.17 179.834,165.503 176,170.5C 169.369,176.215 162.536,181.549 155.5,186.5C 154.167,186.5 153.5,185.833 153.5,184.5C 154.5,183.833 155.5,183.167 156.5,182.5C 159.167,180.833 161.833,179.167 164.5,177.5C 166.546,175.721 168.713,174.054 171,172.5C 171.483,171.552 171.649,170.552 171.5,169.5C 168.518,169.896 165.851,169.229 163.5,167.5C 166.15,164.349 168.984,161.349 172,158.5C 173.705,156.423 174.872,154.09 175.5,151.5C 179.389,146.177 181.722,140.177 182.5,133.5C 185.249,126.858 187.249,119.858 188.5,112.5C 189.698,108.233 190.698,103.9 191.5,99.5C 192.268,98.7375 192.768,97.7375 193,96.5C 193.824,86.9908 193.658,77.6575 192.5,68.5C 192.167,68.5 191.833,68.5 191.5,68.5C 191.5,67.5 191.5,66.5 191.5,65.5C 190.962,63.8828 190.629,62.2161 190.5,60.5C 191.833,60.5 193.167,60.5 194.5,60.5C 193.454,55.1305 190.787,50.7972 186.5,47.5C 176.415,39.0902 165.748,31.4235 154.5,24.5C 154.577,23.2502 155.244,22.4169 156.5,22C 178.752,13.5594 201.752,10.3927 225.5,12.5 Z"/></g>
<g><path style="opacity:1" fill="#0c0b0a" d="M 311.5,46.5 C 316.945,51.2833 321.278,56.9499 324.5,63.5C 324.571,67.2139 325.738,70.5473 328,73.5C 329,81.1605 329.833,88.8271 330.5,96.5C 328.739,83.4015 323.406,71.9015 314.5,62C 304.403,53.32 293.07,51.32 280.5,56C 272.751,59.1388 265.084,62.4721 257.5,66C 248.129,73.9935 246.295,83.4935 252,94.5C 255.333,104.5 258.667,114.5 262,124.5C 271.65,145.556 287.817,153.556 310.5,148.5C 296.781,153.848 284.114,151.848 272.5,142.5C 270.833,140.5 269.167,138.5 267.5,136.5C 264.507,132.521 262.007,128.188 260,123.5C 255.214,109.48 251.048,95.3137 247.5,81C 247.684,78.135 248.018,75.3016 248.5,72.5C 250.539,71.089 251.539,69.089 251.5,66.5C 247.814,66.87 246.814,65.5367 248.5,62.5C 262.238,52.3663 277.571,46.3663 294.5,44.5C 300.277,44.4042 305.944,45.0708 311.5,46.5 Z"/></g>
<g><path style="opacity:1" fill="#2d292a" d="M 131.5,44.5 C 135.394,46.2265 135.061,47.7265 130.5,49C 129.748,49.6708 129.414,50.5041 129.5,51.5C 113.622,53.1024 102.288,61.1024 95.5,75.5C 95.8808,73.0582 95.2141,72.3915 93.5,73.5C 92.7025,73.0431 92.3691,72.3764 92.5,71.5C 96.1679,63.4895 100.835,56.1562 106.5,49.5C 107.71,49.0679 108.71,48.4013 109.5,47.5C 116.541,44.8263 123.874,43.8263 131.5,44.5 Z"/></g>
<g><path style="opacity:1" fill="#dadbdb" d="M 132.5,27.5 C 131.85,29.4352 131.517,31.4352 131.5,33.5C 138.022,33.8235 144.355,33.4902 150.5,32.5C 151.71,32.9321 152.71,33.5987 153.5,34.5C 146.159,34.3337 138.826,34.5003 131.5,35C 132.5,37.3333 134.167,39 136.5,40C 140.327,41.746 143.993,43.746 147.5,46C 156.343,46.8236 165.01,46.6569 173.5,45.5C 177.122,47.7867 180.455,50.4534 183.5,53.5C 186.691,57.2343 189.358,61.2343 191.5,65.5C 191.5,66.5 191.5,67.5 191.5,68.5C 191.5,69.5 191.5,70.5 191.5,71.5C 188.102,71.1796 184.768,71.513 181.5,72.5C 182.167,74.5 182.833,76.5 183.5,78.5C 182.369,82.8936 181.036,87.2269 179.5,91.5C 177.207,92.6261 175.04,93.9594 173,95.5C 173.565,92.596 174.065,89.596 174.5,86.5C 174.909,81.3026 174.242,76.3026 172.5,71.5C 172.414,70.5041 172.748,69.6708 173.5,69C 171.099,68.195 171.266,67.3617 174,66.5C 174.667,65.5 174.667,64.5 174,63.5C 169.054,59.2761 163.554,55.9428 157.5,53.5C 153.167,51.5 148.833,49.5 144.5,47.5C 140.282,46.029 135.949,45.029 131.5,44.5C 123.874,43.8263 116.541,44.8263 109.5,47.5C 108.45,47.0954 108.45,46.4288 109.5,45.5C 116.612,38.7129 124.279,32.7129 132.5,27.5 Z"/></g>
<g><path style="opacity:1" fill="#dcdcdc" d="M 289.5,27.5 C 296.732,31.7306 303.399,36.7306 309.5,42.5C 311.806,43.375 312.473,44.7084 311.5,46.5C 305.944,45.0708 300.277,44.4042 294.5,44.5C 277.571,46.3663 262.238,52.3663 248.5,62.5C 246.367,64.0905 244.701,66.0905 243.5,68.5C 242.662,68.8417 242.328,69.5084 242.5,70.5C 238.6,71.4299 234.6,71.7633 230.5,71.5C 230.5,70.1667 230.5,68.8333 230.5,67.5C 231.404,66.791 231.737,65.791 231.5,64.5C 234.241,60.0297 237.241,55.6964 240.5,51.5C 243.328,49.2519 246.328,47.2519 249.5,45.5C 265.575,49.8177 279.575,46.3177 291.5,35C 283.841,34.5003 276.174,34.3336 268.5,34.5C 268.973,33.0937 269.973,32.427 271.5,32.5C 277.645,33.4902 283.978,33.8235 290.5,33.5C 290.483,31.4352 290.15,29.4352 289.5,27.5 Z"/></g>
<g><path style="opacity:1" fill="#4e4b4d" d="M 131.5,44.5 C 135.949,45.029 140.282,46.029 144.5,47.5C 144.539,48.5832 144.873,49.5832 145.5,50.5C 143.712,51.2826 142.712,52.6159 142.5,54.5C 138.263,53.119 133.93,52.119 129.5,51.5C 129.414,50.5041 129.748,49.6708 130.5,49C 135.061,47.7265 135.394,46.2265 131.5,44.5 Z"/></g>
<g><path style="opacity:1" fill="#b3b2b3" d="M 234.5,48.5 C 233.972,49.8474 233.805,51.1807 234,52.5C 235.699,51.5939 237.533,51.2606 239.5,51.5C 239.833,51.5 240.167,51.5 240.5,51.5C 237.241,55.6964 234.241,60.0297 231.5,64.5C 231.5,63.5 231.5,62.5 231.5,61.5C 230.167,61.5 228.833,61.5 227.5,61.5C 227.5,60.5 227.5,59.5 227.5,58.5C 229.062,54.6082 231.395,51.2749 234.5,48.5 Z"/></g>
<g><path style="opacity:1" fill="#676668" d="M 144.5,47.5 C 148.833,49.5 153.167,51.5 157.5,53.5C 157.376,55.5816 156.376,57.0816 154.5,58C 155.056,58.3826 155.389,58.8826 155.5,59.5C 151.083,58.0282 146.75,56.3615 142.5,54.5C 142.712,52.6159 143.712,51.2826 145.5,50.5C 144.873,49.5832 144.539,48.5832 144.5,47.5 Z"/></g>
<g><path style="opacity:1" fill="#535151" d="M 186.5,47.5 C 190.787,50.7972 193.454,55.1305 194.5,60.5C 193.167,60.5 191.833,60.5 190.5,60.5C 190.629,62.2161 190.962,63.8828 191.5,65.5C 189.358,61.2343 186.691,57.2343 183.5,53.5C 184.589,51.8829 186.256,51.0496 188.5,51C 183.468,50.596 182.801,49.4294 186.5,47.5 Z"/></g>
<g><path style="opacity:1" fill="#868689" d="M 157.5,53.5 C 163.554,55.9428 169.054,59.2761 174,63.5C 174.667,64.5 174.667,65.5 174,66.5C 171.266,67.3617 171.099,68.195 173.5,69C 172.748,69.6708 172.414,70.5041 172.5,71.5C 168.065,65.7801 162.398,61.7801 155.5,59.5C 155.389,58.8826 155.056,58.3826 154.5,58C 156.376,57.0816 157.376,55.5816 157.5,53.5 Z"/></g>
<g><path style="opacity:1" fill="#818082" d="M 227.5,58.5 C 227.5,59.5 227.5,60.5 227.5,61.5C 228.833,61.5 230.167,61.5 231.5,61.5C 231.5,62.5 231.5,63.5 231.5,64.5C 231.737,65.791 231.404,66.791 230.5,67.5C 229.732,68.2625 229.232,69.2625 229,70.5C 228.501,75.4889 228.334,80.4889 228.5,85.5C 227.679,82.3586 227.179,79.0252 227,75.5C 225.989,76.3366 224.822,76.67 223.5,76.5C 223.5,75.5 223.5,74.5 223.5,73.5C 223.647,68.0783 224.98,63.0783 227.5,58.5 Z"/></g>
<g><path style="opacity:1" fill="#7b7b7e" d="M 329.5,57.5 C 332.314,62.4276 334.981,67.4276 337.5,72.5C 337.5,77.1667 337.5,81.8333 337.5,86.5C 335.216,78.9174 332.05,71.584 328,64.5C 327.333,62.8333 327.333,61.1667 328,59.5C 328.333,59.8333 328.667,60.1667 329,60.5C 329.483,59.552 329.649,58.552 329.5,57.5 Z"/></g>
<g><path style="opacity:1" fill="#514f50" d="M 248.5,62.5 C 246.814,65.5367 247.814,66.87 251.5,66.5C 251.539,69.089 250.539,71.089 248.5,72.5C 247.142,72.1778 245.475,72.1778 243.5,72.5C 243.5,71.1667 243.5,69.8333 243.5,68.5C 244.701,66.0905 246.367,64.0905 248.5,62.5 Z"/></g>
<g><path style="opacity:1" fill="#babec1" d="M 191.5,68.5 C 191.833,68.5 192.167,68.5 192.5,68.5C 192.733,78.8652 192.4,89.1985 191.5,99.5C 190.698,103.9 189.698,108.233 188.5,112.5C 183.5,112.5 178.5,112.5 173.5,112.5C 172.025,119.092 169.858,125.426 167,131.5C 164.472,125.648 163.972,119.648 165.5,113.5C 168.265,104.33 171.265,95.3299 174.5,86.5C 174.065,89.596 173.565,92.596 173,95.5C 175.04,93.9594 177.207,92.6261 179.5,91.5C 181.036,87.2269 182.369,82.8936 183.5,78.5C 182.833,76.5 182.167,74.5 181.5,72.5C 184.768,71.513 188.102,71.1796 191.5,71.5C 191.5,70.5 191.5,69.5 191.5,68.5 Z"/></g>
<g><path style="opacity:1" fill="#b6bbbe" d="M 230.5,67.5 C 230.5,68.8333 230.5,70.1667 230.5,71.5C 234.6,71.7633 238.6,71.4299 242.5,70.5C 239.692,76.1359 238.859,82.1359 240,88.5C 241.88,96.0424 244.047,103.376 246.5,110.5C 242.627,112.43 238.294,113.097 233.5,112.5C 231.215,105.086 229.549,97.4192 228.5,89.5C 228.5,88.1667 228.5,86.8333 228.5,85.5C 228.334,80.4889 228.501,75.4889 229,70.5C 229.232,69.2625 229.732,68.2625 230.5,67.5 Z"/></g>
<g><path style="opacity:1" fill="#5c5b5a" d="M 192.5,68.5 C 193.658,77.6575 193.824,86.9908 193,96.5C 192.768,97.7375 192.268,98.7375 191.5,99.5C 192.4,89.1985 192.733,78.8652 192.5,68.5 Z"/></g>
<g><path style="opacity:1" fill="#4a4747" d="M 304.5,29.5 C 306.754,30.4151 308.754,31.7484 310.5,33.5C 331.933,50.3657 343.933,72.3657 346.5,99.5C 345.167,99.5 343.833,99.5 342.5,99.5C 342.155,92.4499 341.322,85.4499 340,78.5C 339.434,76.2774 338.6,74.2774 337.5,72.5C 334.981,67.4276 332.314,62.4276 329.5,57.5C 324.575,49.0068 318.242,41.6734 310.5,35.5C 308.167,33.8333 306.167,31.8333 304.5,29.5 Z"/></g>
<g><path style="opacity:1" fill="#474646" d="M 223.5,73.5 C 223.5,74.5 223.5,75.5 223.5,76.5C 224.822,76.67 225.989,76.3366 227,75.5C 227.179,79.0252 227.679,82.3586 228.5,85.5C 228.5,86.8333 228.5,88.1667 228.5,89.5C 226.914,90.4132 225.414,90.4132 224,89.5C 222.542,84.036 222.375,78.7027 223.5,73.5 Z"/></g>
<g><path style="opacity:1" fill="#3c3839" d="M 92.5,71.5 C 92.3691,72.3764 92.7025,73.0431 93.5,73.5C 95.2141,72.3915 95.8808,73.0582 95.5,75.5C 91.2757,86.0612 89.2757,97.0612 89.5,108.5C 88.7321,107.737 88.2321,106.737 88,105.5C 87.586,105.957 87.086,106.291 86.5,106.5C 85.513,103.232 85.1796,99.8984 85.5,96.5C 86.0351,87.5742 88.3684,79.2408 92.5,71.5 Z"/></g>
<g><path style="opacity:1" fill="#312e2f" d="M 324.5,63.5 C 332.015,73.8631 336.015,85.5297 336.5,98.5C 336.649,99.552 336.483,100.552 336,101.5C 335.482,98.9774 334.148,96.9774 332,95.5C 331.536,96.0944 331.369,96.7611 331.5,97.5C 331.167,97.5 330.833,97.5 330.5,97.5C 330.5,97.1667 330.5,96.8333 330.5,96.5C 329.833,88.8271 329,81.1605 328,73.5C 325.738,70.5473 324.571,67.2139 324.5,63.5 Z"/></g>
<g><path style="opacity:1" fill="#737276" d="M 243.5,68.5 C 243.5,69.8333 243.5,71.1667 243.5,72.5C 245.475,72.1778 247.142,72.1778 248.5,72.5C 248.018,75.3016 247.684,78.135 247.5,81C 251.048,95.3137 255.214,109.48 260,123.5C 262.007,128.188 264.507,132.521 267.5,136.5C 266.25,136.577 265.417,137.244 265,138.5C 264.333,137.833 263.667,137.167 263,136.5C 261.549,138.464 259.716,139.797 257.5,140.5C 256.275,139.063 255.275,137.396 254.5,135.5C 252,135.167 249.5,134.833 247,134.5C 244.071,134.525 241.571,135.191 239.5,136.5C 238.596,135.791 238.263,134.791 238.5,133.5C 243.511,133.666 248.511,133.499 253.5,133C 250.422,125.606 248.088,118.106 246.5,110.5C 244.047,103.376 241.88,96.0424 240,88.5C 238.859,82.1359 239.692,76.1359 242.5,70.5C 242.328,69.5084 242.662,68.8417 243.5,68.5 Z"/></g>
<g><path style="opacity:1" fill="#b4b2b2" d="M 84.5,66.5 C 83.441,71.9913 83.441,77.3246 84.5,82.5C 82.8779,86.3219 81.8779,90.3219 81.5,94.5C 79.0964,97.433 77.263,100.766 76,104.5C 75.8312,99.1717 75.9979,93.8384 76.5,88.5C 77.9581,80.6285 80.6247,73.2952 84.5,66.5 Z"/></g>
<g><path style="opacity:0.245" fill="#120f0e" d="M 129.5,51.5 C 133.93,52.119 138.263,53.119 142.5,54.5C 146.75,56.3615 151.083,58.0282 155.5,59.5C 162.398,61.7801 168.065,65.7801 172.5,71.5C 174.242,76.3026 174.909,81.3026 174.5,86.5C 171.265,95.3299 168.265,104.33 165.5,113.5C 163.325,118.681 161.325,124.014 159.5,129.5C 156.327,134.491 152.66,139.157 148.5,143.5C 146.031,144.569 143.698,145.902 141.5,147.5C 138.598,148.578 135.598,149.244 132.5,149.5C 130.698,150.458 128.698,151.125 126.5,151.5C 122.434,151.693 118.434,151.36 114.5,150.5C 108.847,149.172 103.847,146.505 99.5,142.5C 99.0075,140.181 98.0075,138.181 96.5,136.5C 92.9161,127.498 90.5828,118.165 89.5,108.5C 89.2757,97.0612 91.2757,86.0612 95.5,75.5C 102.288,61.1024 113.622,53.1024 129.5,51.5 Z M 132.5,149.5 C 121.32,151.389 111.153,149.056 102,142.5C 88.421,118.334 88.0877,94.0005 101,69.5C 111.122,55.015 124.622,50.515 141.5,56C 149.739,59.119 157.739,62.7857 165.5,67C 169.976,70.6174 172.643,75.284 173.5,81C 169.335,97.1614 164.168,112.995 158,128.5C 152.263,138.939 143.763,145.939 132.5,149.5 Z"/></g>
<g><path style="opacity:1" fill="#8d8b8c" d="M 105.5,48.5 C 105.5,49.1667 105.833,49.5 106.5,49.5C 100.835,56.1562 96.1679,63.4895 92.5,71.5C 88.3684,79.2408 86.0351,87.5742 85.5,96.5C 84.2021,109.075 85.8688,121.409 90.5,133.5C 93.7035,141.017 97.7035,148.017 102.5,154.5C 103.167,155.5 103.833,156.5 104.5,157.5C 104.5,158.167 104.167,158.5 103.5,158.5C 101.397,155.28 99.0638,152.28 96.5,149.5C 90.3956,139.838 86.0623,129.505 83.5,118.5C 83.0343,112.509 82.701,106.509 82.5,100.5C 83.4675,97.5547 83.6342,94.5547 83,91.5C 82.7679,92.7375 82.2679,93.7375 81.5,94.5C 81.8779,90.3219 82.8779,86.3219 84.5,82.5C 88.984,69.5158 95.984,58.1825 105.5,48.5 Z"/></g>
<g><path style="opacity:1" fill="#565353" d="M 337.5,72.5 C 338.6,74.2774 339.434,76.2774 340,78.5C 341.322,85.4499 342.155,92.4499 342.5,99.5C 343.833,99.5 345.167,99.5 346.5,99.5C 346.867,107.309 346.201,114.976 344.5,122.5C 342.712,122.215 341.045,122.548 339.5,123.5C 337.736,130.59 335.069,137.256 331.5,143.5C 327.589,149.749 322.922,155.415 317.5,160.5C 317.5,160.167 317.5,159.833 317.5,159.5C 335.843,138.469 342.51,114.136 337.5,86.5C 337.5,81.8333 337.5,77.1667 337.5,72.5 Z"/></g>
<g><path style="opacity:1" fill="#494748" d="M 76.5,88.5 C 75.9979,93.8384 75.8312,99.1717 76,104.5C 77.263,100.766 79.0964,97.433 81.5,94.5C 82.2679,93.7375 82.7679,92.7375 83,91.5C 83.6342,94.5547 83.4675,97.5547 82.5,100.5C 80.1975,102.978 78.0308,105.645 76,108.5C 75.6174,107.944 75.1174,107.611 74.5,107.5C 74.1561,100.918 74.8228,94.5843 76.5,88.5 Z"/></g>
<g><path style="opacity:1" fill="#535152" d="M 336.5,98.5 C 337.687,104.371 337.52,110.371 336,116.5C 335.667,112.167 335.333,107.833 335,103.5C 334.692,102.692 334.192,102.025 333.5,101.5C 332.548,103.045 332.215,104.712 332.5,106.5C 332.768,108.099 332.434,109.432 331.5,110.5C 331.5,106.167 331.5,101.833 331.5,97.5C 331.369,96.7611 331.536,96.0944 332,95.5C 334.148,96.9774 335.482,98.9774 336,101.5C 336.483,100.552 336.649,99.552 336.5,98.5 Z"/></g>
<g><path style="opacity:1" fill="#2b2728" d="M 82.5,100.5 C 82.701,106.509 83.0343,112.509 83.5,118.5C 83.1199,121.745 81.9532,124.745 80,127.5C 78.883,126.051 78.2163,124.384 78,122.5C 77.5172,123.448 77.3505,124.448 77.5,125.5C 75.4394,119.804 74.4394,113.804 74.5,107.5C 75.1174,107.611 75.6174,107.944 76,108.5C 78.0308,105.645 80.1975,102.978 82.5,100.5 Z"/></g>
<g><path style="opacity:1" fill="#939294" d="M 310.5,35.5 C 318.242,41.6734 324.575,49.0068 329.5,57.5C 329.649,58.552 329.483,59.552 329,60.5C 328.667,60.1667 328.333,59.8333 328,59.5C 327.333,61.1667 327.333,62.8333 328,64.5C 332.05,71.584 335.216,78.9174 337.5,86.5C 342.51,114.136 335.843,138.469 317.5,159.5C 317.167,159.5 316.833,159.5 316.5,159.5C 317.581,157.236 318.915,155.069 320.5,153C 319.934,152.005 319.267,151.172 318.5,150.5C 318.33,149.178 318.663,148.011 319.5,147C 318.906,146.536 318.239,146.369 317.5,146.5C 319.142,145.197 320.809,143.864 322.5,142.5C 321.677,144.455 321.51,146.455 322,148.5C 331.302,135.264 335.302,120.598 334,104.5C 333.722,105.416 333.222,106.082 332.5,106.5C 332.215,104.712 332.548,103.045 333.5,101.5C 334.192,102.025 334.692,102.692 335,103.5C 335.333,107.833 335.667,112.167 336,116.5C 337.52,110.371 337.687,104.371 336.5,98.5C 336.015,85.5297 332.015,73.8631 324.5,63.5C 321.278,56.9499 316.945,51.2833 311.5,46.5C 312.473,44.7084 311.806,43.375 309.5,42.5C 309.993,40.1944 310.326,37.861 310.5,35.5 Z"/></g>
<g><path style="opacity:1" fill="#a5a9ae" d="M 188.5,112.5 C 187.249,119.858 185.249,126.858 182.5,133.5C 177.125,133.172 171.792,133.505 166.5,134.5C 166.058,135.739 165.391,136.739 164.5,137.5C 164.101,134.304 163.101,131.304 161.5,128.5C 160.817,128.863 160.15,129.196 159.5,129.5C 161.325,124.014 163.325,118.681 165.5,113.5C 163.972,119.648 164.472,125.648 167,131.5C 169.858,125.426 172.025,119.092 173.5,112.5C 178.5,112.5 183.5,112.5 188.5,112.5 Z"/></g>
<g><path style="opacity:1" fill="#a0a5ab" d="M 246.5,110.5 C 248.088,118.106 250.422,125.606 253.5,133C 248.511,133.499 243.511,133.666 238.5,133.5C 236.36,126.608 234.694,119.608 233.5,112.5C 238.294,113.097 242.627,112.43 246.5,110.5 Z"/></g>
<g><path style="opacity:1" fill="#d0cfcf" d="M 322.5,142.5 C 327.931,132.538 330.931,121.871 331.5,110.5C 332.434,109.432 332.768,108.099 332.5,106.5C 333.222,106.082 333.722,105.416 334,104.5C 335.302,120.598 331.302,135.264 322,148.5C 321.51,146.455 321.677,144.455 322.5,142.5 Z"/></g>
<g><path style="opacity:1" fill="#5a5757" d="M 85.5,96.5 C 85.1796,99.8984 85.513,103.232 86.5,106.5C 87.086,106.291 87.586,105.957 88,105.5C 88.2321,106.737 88.7321,107.737 89.5,108.5C 90.5828,118.165 92.9161,127.498 96.5,136.5C 95.1634,135.685 94.1634,134.518 93.5,133C 92.4232,132.53 91.4232,132.697 90.5,133.5C 85.8688,121.409 84.2021,109.075 85.5,96.5 Z"/></g>
<g><path style="opacity:1" fill="#6b6665" d="M 344.5,122.5 C 342.804,130.262 340.137,137.595 336.5,144.5C 335.393,142.153 333.726,141.82 331.5,143.5C 335.069,137.256 337.736,130.59 339.5,123.5C 341.045,122.548 342.712,122.215 344.5,122.5 Z"/></g>
<g><path style="opacity:1" fill="#3a3738" d="M 83.5,118.5 C 86.0623,129.505 90.3956,139.838 96.5,149.5C 97.0838,152.285 96.0838,153.952 93.5,154.5C 89.8444,149.866 86.6777,144.866 84,139.5C 83.31,138.262 82.81,138.262 82.5,139.5C 80.8333,136.167 79.1667,132.833 77.5,129.5C 77.5,128.167 77.5,126.833 77.5,125.5C 77.3505,124.448 77.5172,123.448 78,122.5C 78.2163,124.384 78.883,126.051 80,127.5C 81.9532,124.745 83.1199,121.745 83.5,118.5 Z"/></g>
<g><path style="opacity:1" fill="#dadada" d="M 164.5,137.5 C 161.428,143.968 156.762,148.968 150.5,152.5C 147.778,149.945 147.111,146.945 148.5,143.5C 152.66,139.157 156.327,134.491 159.5,129.5C 160.15,129.196 160.817,128.863 161.5,128.5C 163.101,131.304 164.101,134.304 164.5,137.5 Z"/></g>
<g><path style="opacity:0.545" fill="#1a1817" d="M 330.5,97.5 C 330.833,97.5 331.167,97.5 331.5,97.5C 331.5,101.833 331.5,106.167 331.5,110.5C 330.931,121.871 327.931,132.538 322.5,142.5C 320.809,143.864 319.142,145.197 317.5,146.5C 315.299,147.566 312.965,148.233 310.5,148.5C 313.687,146.65 316.853,144.65 320,142.5C 328.066,128.57 331.566,113.57 330.5,97.5 Z"/></g>
<g><path style="opacity:0.053" fill="#0e0c0b" d="M 310.5,31.5 C 349.364,63.6465 358.197,102.647 337,148.5C 322.344,171.813 302.177,188.647 276.5,199C 224.554,218.488 174.221,215.154 125.5,189C 105.068,176.901 89.9008,160.068 80,138.5C 78.5699,135.647 77.7366,132.647 77.5,129.5C 79.1667,132.833 80.8333,136.167 82.5,139.5C 96.1876,166.518 117.188,185.518 145.5,196.5C 149.799,198.935 154.466,200.602 159.5,201.5C 175.869,207.282 192.869,209.949 210.5,209.5C 243.729,209.617 274.063,200.617 301.5,182.5C 316.65,173.017 328.317,160.351 336.5,144.5C 340.137,137.595 342.804,130.262 344.5,122.5C 346.201,114.976 346.867,107.309 346.5,99.5C 343.933,72.3657 331.933,50.3657 310.5,33.5C 310.5,32.8333 310.5,32.1667 310.5,31.5 Z"/></g>
<g><path style="opacity:0.42" fill="#211d1c" d="M 274.5,186.5 C 257.227,192.035 239.56,195.702 221.5,197.5C 212.833,197.5 204.167,197.5 195.5,197.5C 195.5,197.167 195.5,196.833 195.5,196.5C 219.926,198.322 243.593,194.989 266.5,186.5C 267.5,186.5 268.5,186.5 269.5,186.5C 271.334,185.506 273.001,185.506 274.5,186.5 Z"/></g>
<g><path style="opacity:1" fill="#a5a2a1" d="M 293.5,181.5 C 296.385,181.194 299.052,181.527 301.5,182.5C 274.063,200.617 243.729,209.617 210.5,209.5C 210.5,207.5 210.5,205.5 210.5,203.5C 205.968,203.818 201.634,203.485 197.5,202.5C 229.704,204.864 260.037,198.53 288.5,183.5C 290.05,182.559 291.716,181.893 293.5,181.5 Z"/></g>
<g><path style="opacity:1" fill="#8e8b8b" d="M 146.5,186.5 C 152.7,188.633 159.033,190.3 165.5,191.5C 169.397,192.055 173.063,193.055 176.5,194.5C 171.114,194.223 165.781,193.556 160.5,192.5C 155.185,191.812 150.519,189.812 146.5,186.5 Z"/></g>
<g><path style="opacity:0.396" fill="#120f0e" d="M 160.5,188.5 C 172.109,191.952 183.776,194.619 195.5,196.5C 189.106,196.354 182.773,195.687 176.5,194.5C 173.063,193.055 169.397,192.055 165.5,191.5C 163.739,190.687 162.072,189.687 160.5,188.5 Z"/></g>
<g><path style="opacity:0.996" fill="#37302d" d="M 139.5,184.5 C 144.031,184.846 148.697,184.846 153.5,184.5C 153.5,185.833 154.167,186.5 155.5,186.5C 157.403,186.796 159.07,187.463 160.5,188.5C 162.072,189.687 163.739,190.687 165.5,191.5C 159.033,190.3 152.7,188.633 146.5,186.5C 144.167,185.833 141.833,185.167 139.5,184.5 Z"/></g>
<g><path style="opacity:1" fill="#77777a" d="M 93.5,154.5 C 102.558,166.063 113.558,175.229 126.5,182C 128.81,182.497 131.143,182.663 133.5,182.5C 133.842,183.338 134.508,183.672 135.5,183.5C 143.202,188.069 151.202,192.069 159.5,195.5C 154.897,195.956 150.23,196.289 145.5,196.5C 117.188,185.518 96.1876,166.518 82.5,139.5C 82.81,138.262 83.31,138.262 84,139.5C 86.6777,144.866 89.8444,149.866 93.5,154.5 Z"/></g>
<g><path style="opacity:1" fill="#929396" d="M 143.5,177.5 C 148.461,177.824 152.794,179.491 156.5,182.5C 155.5,183.167 154.5,183.833 153.5,184.5C 148.697,184.846 144.031,184.846 139.5,184.5C 138.292,183.766 136.959,183.433 135.5,183.5C 134.508,183.672 133.842,183.338 133.5,182.5C 134.167,182.5 134.5,182.167 134.5,181.5C 137.5,180.167 140.5,178.833 143.5,177.5 Z"/></g>
<g><path style="opacity:1" fill="#464343" d="M 265.5,169.5 C 273.424,173.363 281.757,176.03 290.5,177.5C 295.304,176.181 299.804,174.181 304,171.5C 304.765,171.57 305.265,171.903 305.5,172.5C 301.462,175.512 297.462,178.512 293.5,181.5C 291.716,181.893 290.05,182.559 288.5,183.5C 288.265,182.903 287.765,182.57 287,182.5C 282.831,183.946 278.664,185.279 274.5,186.5C 273.001,185.506 271.334,185.506 269.5,186.5C 268.63,184.726 267.297,183.393 265.5,182.5C 268.271,180.233 270.938,177.733 273.5,175C 270.593,173.391 267.927,171.558 265.5,169.5 Z"/></g>
<g><path style="opacity:1" fill="#706e6f" d="M 164.5,177.5 C 161.833,179.167 159.167,180.833 156.5,182.5C 152.794,179.491 148.461,177.824 143.5,177.5C 150.404,172.471 157.404,172.471 164.5,177.5 Z"/></g>
<g><path style="opacity:1" fill="#3f3d3d" d="M 175.5,151.5 C 174.872,154.09 173.705,156.423 172,158.5C 168.984,161.349 166.15,164.349 163.5,167.5C 165.851,169.229 168.518,169.896 171.5,169.5C 171.649,170.552 171.483,171.552 171,172.5C 168.713,174.054 166.546,175.721 164.5,177.5C 157.404,172.471 150.404,172.471 143.5,177.5C 140.5,178.833 137.5,180.167 134.5,181.5C 126.997,178.862 120.331,174.696 114.5,169C 114.728,168.601 115.062,168.435 115.5,168.5C 128.62,176.205 141.953,176.372 155.5,169C 158.621,167.694 161.287,165.86 163.5,163.5C 167.812,161.188 171.145,157.855 173.5,153.5C 173.833,152.5 174.5,151.833 175.5,151.5 Z"/></g>
<g><path style="opacity:1" fill="#8c8785" d="M 336.5,144.5 C 328.317,160.351 316.65,173.017 301.5,182.5C 299.052,181.527 296.385,181.194 293.5,181.5C 297.462,178.512 301.462,175.512 305.5,172.5C 309.888,168.779 313.888,164.779 317.5,160.5C 322.922,155.415 327.589,149.749 331.5,143.5C 333.726,141.82 335.393,142.153 336.5,144.5 Z"/></g>
<g><path style="opacity:1" fill="#2a2a29" d="M 262.5,168.5 C 263.609,168.557 264.609,168.89 265.5,169.5C 267.927,171.558 270.593,173.391 273.5,175C 270.938,177.733 268.271,180.233 265.5,182.5C 262.489,181.331 259.822,179.664 257.5,177.5C 258.838,175.33 260.672,173.664 263,172.5C 263.579,171.072 263.412,169.738 262.5,168.5 Z"/></g>
<g><path style="opacity:1" fill="#191a18" d="M 255.5,164.5 C 257.988,165.688 260.322,167.021 262.5,168.5C 263.412,169.738 263.579,171.072 263,172.5C 260.672,173.664 258.838,175.33 257.5,177.5C 254.376,175.874 251.709,173.708 249.5,171C 251.637,169.027 253.637,166.861 255.5,164.5 Z"/></g>
<g><path style="opacity:1" fill="#696363" d="M 317.5,160.5 C 313.888,164.779 309.888,168.779 305.5,172.5C 305.265,171.903 304.765,171.57 304,171.5C 299.804,174.181 295.304,176.181 290.5,177.5C 281.757,176.03 273.424,173.363 265.5,169.5C 264.609,168.89 263.609,168.557 262.5,168.5C 260.322,167.021 257.988,165.688 255.5,164.5C 254.833,163.5 254.167,162.5 253.5,161.5C 254.756,161.461 255.756,161.961 256.5,163C 274.013,163.229 291.513,163.729 309,164.5C 310.5,164.167 312,163.833 313.5,163.5C 314.283,161.712 315.616,160.712 317.5,160.5 Z"/></g>
<g><path style="opacity:1" fill="#515051" d="M 96.5,149.5 C 99.0638,152.28 101.397,155.28 103.5,158.5C 105.234,161.2 107.568,163.2 110.5,164.5C 112.167,165.833 113.833,167.167 115.5,168.5C 115.062,168.435 114.728,168.601 114.5,169C 120.331,174.696 126.997,178.862 134.5,181.5C 134.5,182.167 134.167,182.5 133.5,182.5C 131.143,182.663 128.81,182.497 126.5,182C 113.558,175.229 102.558,166.063 93.5,154.5C 96.0838,153.952 97.0838,152.285 96.5,149.5 Z"/></g>
<g><path style="opacity:1" fill="#6c6666" d="M 163.5,163.5 C 161.287,165.86 158.621,167.694 155.5,169C 141.953,176.372 128.62,176.205 115.5,168.5C 113.833,167.167 112.167,165.833 110.5,164.5C 128.139,163.555 145.806,163.222 163.5,163.5 Z"/></g>
<g><path style="opacity:1" fill="#565151" d="M 318.5,150.5 C 319.267,151.172 319.934,152.005 320.5,153C 318.915,155.069 317.581,157.236 316.5,159.5C 313.693,160.657 311.026,160.657 308.5,159.5C 310.564,159.313 312.564,158.813 314.5,158C 316.004,155.486 317.338,152.986 318.5,150.5 Z"/></g>
<g><path style="opacity:1" fill="#807e80" d="M 141.5,147.5 C 141.895,153.575 144.895,155.575 150.5,153.5C 158.167,153.5 165.833,153.5 173.5,153.5C 171.145,157.855 167.812,161.188 163.5,163.5C 145.806,163.222 128.139,163.555 110.5,164.5C 107.568,163.2 105.234,161.2 103.5,158.5C 104.167,158.5 104.5,158.167 104.5,157.5C 106.516,159.013 108.849,159.847 111.5,160C 116.823,160.499 122.156,160.666 127.5,160.5C 140.743,159.192 140.743,158.526 127.5,158.5C 127.528,156.418 126.861,154.584 125.5,153C 126.056,152.617 126.389,152.117 126.5,151.5C 128.698,151.125 130.698,150.458 132.5,149.5C 135.598,149.244 138.598,148.578 141.5,147.5 Z"/></g>
<g><path style="opacity:1" fill="#7f7d7f" d="M 267.5,136.5 C 269.167,138.5 270.833,140.5 272.5,142.5C 271.357,145.976 271.19,149.642 272,153.5C 283.528,159.338 295.695,161.338 308.5,159.5C 311.026,160.657 313.693,160.657 316.5,159.5C 316.833,159.5 317.167,159.5 317.5,159.5C 317.5,159.833 317.5,160.167 317.5,160.5C 315.616,160.712 314.283,161.712 313.5,163.5C 312,163.833 310.5,164.167 309,164.5C 291.513,163.729 274.013,163.229 256.5,163C 255.756,161.961 254.756,161.461 253.5,161.5C 250.529,159.557 248.529,156.891 247.5,153.5C 254.841,153.666 262.174,153.5 269.5,153C 264.623,149.624 260.623,145.457 257.5,140.5C 259.716,139.797 261.549,138.464 263,136.5C 263.667,137.167 264.333,137.833 265,138.5C 265.417,137.244 266.25,136.577 267.5,136.5 Z"/></g>
<g><path style="opacity:1" fill="#b6b6b8" d="M 148.5,143.5 C 147.111,146.945 147.778,149.945 150.5,152.5C 150.5,152.833 150.5,153.167 150.5,153.5C 144.895,155.575 141.895,153.575 141.5,147.5C 143.698,145.902 146.031,144.569 148.5,143.5 Z"/></g>
<g><path style="opacity:1" fill="#686769" d="M 114.5,150.5 C 118.434,151.36 122.434,151.693 126.5,151.5C 126.389,152.117 126.056,152.617 125.5,153C 126.861,154.584 127.528,156.418 127.5,158.5C 140.743,158.526 140.743,159.192 127.5,160.5C 122.572,159.893 117.572,159.06 112.5,158C 111.133,155.699 110.466,153.199 110.5,150.5C 111.833,150.5 113.167,150.5 114.5,150.5 Z"/></g>
<g><path style="opacity:1" fill="#474446" d="M 99.5,142.5 C 103.847,146.505 108.847,149.172 114.5,150.5C 113.167,150.5 111.833,150.5 110.5,150.5C 110.466,153.199 111.133,155.699 112.5,158C 117.572,159.06 122.572,159.893 127.5,160.5C 122.156,160.666 116.823,160.499 111.5,160C 108.849,159.847 106.516,159.013 104.5,157.5C 103.833,156.5 103.167,155.5 102.5,154.5C 102.134,150.27 101.134,146.27 99.5,142.5 Z"/></g>
<g><path style="opacity:1" fill="#c0c1c3" d="M 272.5,142.5 C 284.114,151.848 296.781,153.848 310.5,148.5C 312.965,148.233 315.299,147.566 317.5,146.5C 318.239,146.369 318.906,146.536 319.5,147C 318.663,148.011 318.33,149.178 318.5,150.5C 317.338,152.986 316.004,155.486 314.5,158C 312.564,158.813 310.564,159.313 308.5,159.5C 295.695,161.338 283.528,159.338 272,153.5C 271.19,149.642 271.357,145.976 272.5,142.5 Z"/></g>
<g><path style="opacity:1" fill="#737071" d="M 96.5,136.5 C 98.0075,138.181 99.0075,140.181 99.5,142.5C 101.134,146.27 102.134,150.27 102.5,154.5C 97.7035,148.017 93.7035,141.017 90.5,133.5C 91.4232,132.697 92.4232,132.53 93.5,133C 94.1634,134.518 95.1634,135.685 96.5,136.5 Z"/></g>
<g><path style="opacity:1" fill="#8c8d92" d="M 257.5,140.5 C 260.623,145.457 264.623,149.624 269.5,153C 262.174,153.5 254.841,153.666 247.5,153.5C 243.521,148.538 240.854,142.871 239.5,136.5C 241.571,135.191 244.071,134.525 247,134.5C 249.5,134.833 252,135.167 254.5,135.5C 255.275,137.396 256.275,139.063 257.5,140.5 Z"/></g>
<g><path style="opacity:1" fill="#8c8d91" d="M 182.5,133.5 C 181.722,140.177 179.389,146.177 175.5,151.5C 174.5,151.833 173.833,152.5 173.5,153.5C 165.833,153.5 158.167,153.5 150.5,153.5C 150.5,153.167 150.5,152.833 150.5,152.5C 156.762,148.968 161.428,143.968 164.5,137.5C 165.391,136.739 166.058,135.739 166.5,134.5C 171.792,133.505 177.125,133.172 182.5,133.5 Z"/></g>
<g><path style="opacity:1" fill="#b1b0af" d="M 160.5,192.5 C 165.781,193.556 171.114,194.223 176.5,194.5C 182.773,195.687 189.106,196.354 195.5,196.5C 195.5,196.833 195.5,197.167 195.5,197.5C 191.177,197.198 187.01,197.865 183,199.5C 175.06,198.017 167.56,195.683 160.5,192.5 Z"/></g>
<g><path style="opacity:1" fill="#e9e9e9" d="M 288.5,183.5 C 260.037,198.53 229.704,204.864 197.5,202.5C 196.833,202.5 196.167,202.5 195.5,202.5C 197.386,201.935 199.053,200.935 200.5,199.5C 207.655,198.833 214.655,198.167 221.5,197.5C 239.56,195.702 257.227,192.035 274.5,186.5C 278.664,185.279 282.831,183.946 287,182.5C 287.765,182.57 288.265,182.903 288.5,183.5 Z"/></g>
<g><path style="opacity:1" fill="#636264" d="M 159.5,195.5 C 169.334,197.728 179,200.061 188.5,202.5C 178.801,202.725 169.134,202.392 159.5,201.5C 154.466,200.602 149.799,198.935 145.5,196.5C 150.23,196.289 154.897,195.956 159.5,195.5 Z"/></g>
<g><path style="opacity:1" fill="#cac9c9" d="M 135.5,183.5 C 136.959,183.433 138.292,183.766 139.5,184.5C 141.833,185.167 144.167,185.833 146.5,186.5C 150.519,189.812 155.185,191.812 160.5,192.5C 167.56,195.683 175.06,198.017 183,199.5C 187.01,197.865 191.177,197.198 195.5,197.5C 204.167,197.5 212.833,197.5 221.5,197.5C 214.655,198.167 207.655,198.833 200.5,199.5C 199.053,200.935 197.386,201.935 195.5,202.5C 193.167,202.5 190.833,202.5 188.5,202.5C 179,200.061 169.334,197.728 159.5,195.5C 151.202,192.069 143.202,188.069 135.5,183.5 Z"/></g>
<g><path style="opacity:1" fill="#474444" d="M 159.5,201.5 C 169.134,202.392 178.801,202.725 188.5,202.5C 190.833,202.5 193.167,202.5 195.5,202.5C 196.167,202.5 196.833,202.5 197.5,202.5C 201.634,203.485 205.968,203.818 210.5,203.5C 210.5,205.5 210.5,207.5 210.5,209.5C 192.869,209.949 175.869,207.282 159.5,201.5 Z"/></g>
<g><path style="opacity:0.82" fill="#831912" d="M -0.5,270.5 C 29.0047,270.169 58.3381,270.502 87.5,271.5C 58.8333,271.5 30.1667,271.5 1.5,271.5C 1.5,308.167 1.5,344.833 1.5,381.5C 0.833333,381.5 0.166667,381.5 -0.5,381.5C -0.5,344.5 -0.5,307.5 -0.5,270.5 Z"/></g>
<g><path style="opacity:1" fill="#cf2418" d="M 87.5,271.5 C 90.5418,271.733 93.2084,272.733 95.5,274.5C 96.5387,276.531 98.2054,277.864 100.5,278.5C 101.5,278.833 102.167,279.5 102.5,280.5C 103.419,283.089 105.086,285.089 107.5,286.5C 108.338,286.842 108.672,287.508 108.5,288.5C 108.873,291.574 109.539,294.574 110.5,297.5C 110.5,302.833 110.5,308.167 110.5,313.5C 108.207,317.405 105.874,321.405 103.5,325.5C 103.855,326.522 104.522,327.189 105.5,327.5C 105.427,329.027 106.094,330.027 107.5,330.5C 107.66,332.153 108.326,333.486 109.5,334.5C 109.517,336.565 109.85,338.565 110.5,340.5C 110.5,346.833 110.5,353.167 110.5,359.5C 105.264,370.406 96.9303,377.739 85.5,381.5C 57.5,381.5 29.5,381.5 1.5,381.5C 1.5,344.833 1.5,308.167 1.5,271.5C 30.1667,271.5 58.8333,271.5 87.5,271.5 Z M 76.5,299.5 C 77.5411,302.458 77.5411,305.458 76.5,308.5C 75.0256,309.436 74.0256,310.77 73.5,312.5C 71.847,312.66 70.5137,313.326 69.5,314.5C 57.8333,314.5 46.1667,314.5 34.5,314.5C 34.5,307.833 34.5,301.167 34.5,294.5C 46.5046,294.333 58.5046,294.5 70.5,295C 72.66,296.332 74.66,297.832 76.5,299.5 Z M 73.5,340.5 C 74.8465,342.537 76.1798,344.537 77.5,346.5C 77.1667,348.5 76.8333,350.5 76.5,352.5C 75.197,354.142 73.8637,355.809 72.5,357.5C 59.883,358.462 47.2164,358.795 34.5,358.5C 34.5,351.833 34.5,345.167 34.5,338.5C 46.1714,338.333 57.8381,338.5 69.5,339C 70.745,339.791 72.0783,340.291 73.5,340.5 Z"/></g>
<g><path style="opacity:1" fill="#cf2418" d="M 161.5,270.5 C 181.169,270.333 200.836,270.5 220.5,271C 221.901,271.41 223.234,271.91 224.5,272.5C 226.379,275.258 229.046,276.925 232.5,277.5C 233.785,279.452 235.451,281.118 237.5,282.5C 237.738,284.404 238.738,285.738 240.5,286.5C 240.427,288.027 241.094,289.027 242.5,289.5C 242.325,291.621 242.659,293.621 243.5,295.5C 243.5,324.167 243.5,352.833 243.5,381.5C 232.833,381.5 222.167,381.5 211.5,381.5C 211.5,374.167 211.5,366.833 211.5,359.5C 196.5,359.5 181.5,359.5 166.5,359.5C 166.5,366.833 166.5,374.167 166.5,381.5C 155.833,381.5 145.167,381.5 134.5,381.5C 134.5,352.167 134.5,322.833 134.5,293.5C 136.771,291.388 138.104,288.721 138.5,285.5C 142.167,282.5 145.5,279.167 148.5,275.5C 148.842,274.662 149.508,274.328 150.5,274.5C 154.395,273.538 158.061,272.204 161.5,270.5 Z M 210.5,301.5 C 210.5,313.167 210.5,324.833 210.5,336.5C 196.167,336.5 181.833,336.5 167.5,336.5C 167.5,325.5 167.5,314.5 167.5,303.5C 168.45,299.699 170.784,296.866 174.5,295C 184.5,294.333 194.5,294.333 204.5,295C 206.734,297.063 208.734,299.229 210.5,301.5 Z"/></g>
<g><path style="opacity:0.608" fill="#55150d" d="M 267.5,270.5 C 267.5,307.5 267.5,344.5 267.5,381.5C 266.833,381.5 266.167,381.5 265.5,381.5C 264.84,344.152 265.506,307.152 267.5,270.5 Z"/></g>
<g><path style="opacity:1" fill="#d02418" d="M 267.5,270.5 C 278.167,270.5 288.833,270.5 299.5,270.5C 299.5,307.5 299.5,344.5 299.5,381.5C 288.833,381.5 278.167,381.5 267.5,381.5C 267.5,344.5 267.5,307.5 267.5,270.5 Z"/></g>
<g><path style="opacity:0.561" fill="#50140a" d="M 299.5,270.5 C 301.494,307.152 302.16,344.152 301.5,381.5C 300.833,381.5 300.167,381.5 299.5,381.5C 299.5,344.5 299.5,307.5 299.5,270.5 Z"/></g>
<g><path style="opacity:1" fill="#cd2418" d="M 354.5,270.5 C 378.167,270.5 401.833,270.5 425.5,270.5C 425.5,277.833 425.5,285.167 425.5,292.5C 405.408,292.024 385.408,292.524 365.5,294C 362.865,295.961 361.031,298.461 360,301.5C 359.172,318.005 359.338,334.339 360.5,350.5C 360.229,352.38 360.896,353.713 362.5,354.5C 362.5,356.5 363.5,357.5 365.5,357.5C 385.454,358.476 405.454,358.81 425.5,358.5C 425.5,366.167 425.5,373.833 425.5,381.5C 400.833,381.5 376.167,381.5 351.5,381.5C 347.925,379.713 344.259,377.879 340.5,376C 337.631,372.962 334.631,370.129 331.5,367.5C 330.674,364.515 329.341,361.849 327.5,359.5C 327.5,338.5 327.5,317.5 327.5,296.5C 328.768,294.095 329.435,291.428 329.5,288.5C 333.414,284.246 337.414,279.912 341.5,275.5C 343.027,275.573 344.027,274.906 344.5,273.5C 348.162,273.277 351.495,272.277 354.5,270.5 Z"/></g>
<g><path style="opacity:0.827" fill="#5d140e" d="M 161.5,270.5 C 158.061,272.204 154.395,273.538 150.5,274.5C 153.626,272.01 157.292,270.677 161.5,270.5 Z"/></g>
<g><path style="opacity:0.839" fill="#5c130d" d="M 354.5,270.5 C 351.495,272.277 348.162,273.277 344.5,273.5C 347.505,271.723 350.838,270.723 354.5,270.5 Z"/></g>
<g><path style="opacity:0.98" fill="#5c150f" d="M 224.5,272.5 C 227.704,273.383 230.371,275.05 232.5,277.5C 229.046,276.925 226.379,275.258 224.5,272.5 Z"/></g>
<g><path style="opacity:0.502" fill="#380e07" d="M 344.5,273.5 C 344.027,274.906 343.027,275.573 341.5,275.5C 341.973,274.094 342.973,273.427 344.5,273.5 Z"/></g>
<g><path style="opacity:0.773" fill="#44130b" d="M 95.5,274.5 C 97.754,275.124 99.4206,276.457 100.5,278.5C 98.2054,277.864 96.5387,276.531 95.5,274.5 Z"/></g>
<g><path style="opacity:0.616" fill="#49120a" d="M 148.5,275.5 C 145.5,279.167 142.167,282.5 138.5,285.5C 140.833,281.167 144.167,277.833 148.5,275.5 Z"/></g>
<g><path style="opacity:0.008" fill="#280d05" d="M 232.5,277.5 C 235.189,278.189 236.856,279.856 237.5,282.5C 235.451,281.118 233.785,279.452 232.5,277.5 Z"/></g>
<g><path style="opacity:0.655" fill="#3a1108" d="M 102.5,280.5 C 104.914,281.911 106.581,283.911 107.5,286.5C 105.086,285.089 103.419,283.089 102.5,280.5 Z"/></g>
<g><path style="opacity:0.627" fill="#4d130c" d="M 341.5,275.5 C 337.414,279.912 333.414,284.246 329.5,288.5C 332.113,282.887 336.113,278.554 341.5,275.5 Z"/></g>
<g><path style="opacity:0.549" fill="#351007" d="M 237.5,282.5 C 239.262,283.262 240.262,284.596 240.5,286.5C 238.738,285.738 237.738,284.404 237.5,282.5 Z"/></g>
<g><path style="opacity:0.161" fill="#1c0803" d="M 240.5,286.5 C 241.906,286.973 242.573,287.973 242.5,289.5C 241.094,289.027 240.427,288.027 240.5,286.5 Z"/></g>
<g><path style="opacity:0.706" fill="#3f110a" d="M 108.5,288.5 C 110.472,291.084 111.472,294.084 111.5,297.5C 111.167,297.5 110.833,297.5 110.5,297.5C 109.539,294.574 108.873,291.574 108.5,288.5 Z"/></g>
<g><path style="opacity:0.71" fill="#4a130c" d="M 138.5,285.5 C 138.104,288.721 136.771,291.388 134.5,293.5C 134.794,290.246 136.127,287.579 138.5,285.5 Z"/></g>
<g><path style="opacity:0.017" fill="#2a0d05" d="M 76.5,298.5 C 76.5,298.833 76.5,299.167 76.5,299.5C 74.66,297.832 72.66,296.332 70.5,295C 58.5046,294.5 46.5046,294.333 34.5,294.5C 34.5,301.167 34.5,307.833 34.5,314.5C 46.1667,314.5 57.8333,314.5 69.5,314.5C 57.6783,315.495 45.6783,315.828 33.5,315.5C 33.5,307.833 33.5,300.167 33.5,292.5C 45.5046,292.333 57.5046,292.5 69.5,293C 72.5952,293.935 74.9286,295.769 76.5,298.5 Z"/></g>
<g><path style="opacity:0.018" fill="#1d0702" d="M 210.5,299.5 C 210.5,300.167 210.5,300.833 210.5,301.5C 208.734,299.229 206.734,297.063 204.5,295C 194.5,294.333 184.5,294.333 174.5,295C 170.784,296.866 168.45,299.699 167.5,303.5C 167.5,302.167 167.5,300.833 167.5,299.5C 169.336,296.832 171.669,294.666 174.5,293C 184.907,292.074 195.241,292.408 205.5,294C 207.373,295.704 209.04,297.537 210.5,299.5 Z"/></g>
<g><path style="opacity:0.655" fill="#3e120a" d="M 242.5,289.5 C 243.738,291.214 244.405,293.214 244.5,295.5C 244.167,295.5 243.833,295.5 243.5,295.5C 242.659,293.621 242.325,291.621 242.5,289.5 Z"/></g>
<g><path style="opacity:0.016" fill="#1d0602" d="M 425.5,292.5 C 425.5,293.167 425.5,293.833 425.5,294.5C 405.408,294.024 385.408,294.524 365.5,296C 363.19,297.637 361.69,299.804 361,302.5C 360.5,318.497 360.333,334.497 360.5,350.5C 359.338,334.339 359.172,318.005 360,301.5C 361.031,298.461 362.865,295.961 365.5,294C 385.408,292.524 405.408,292.024 425.5,292.5 Z"/></g>
<g><path style="opacity:0.886" fill="#6b1710" d="M 329.5,288.5 C 329.435,291.428 328.768,294.095 327.5,296.5C 327.167,296.5 326.833,296.5 326.5,296.5C 326.415,293.351 327.415,290.684 329.5,288.5 Z"/></g>
<g><path style="opacity:0.713" fill="#63170f" d="M 134.5,293.5 C 134.5,322.833 134.5,352.167 134.5,381.5C 133.833,381.5 133.167,381.5 132.5,381.5C 132.333,353.831 132.5,326.165 133,298.5C 133.198,296.618 133.698,294.952 134.5,293.5 Z"/></g>
<g><path style="opacity:0.835" fill="#761a12" d="M 243.5,295.5 C 243.833,295.5 244.167,295.5 244.5,295.5C 245.498,323.995 245.831,352.662 245.5,381.5C 244.833,381.5 244.167,381.5 243.5,381.5C 243.5,352.833 243.5,324.167 243.5,295.5 Z"/></g>
<g><path style="opacity:0.788" fill="#6f1711" d="M 326.5,296.5 C 326.833,296.5 327.167,296.5 327.5,296.5C 327.5,317.5 327.5,338.5 327.5,359.5C 326.71,358.391 326.21,357.058 326,355.5C 325.171,335.662 325.338,315.996 326.5,296.5 Z"/></g>
<g><path style="opacity:0.624" fill="#56130c" d="M 76.5,298.5 C 77.7647,299.514 78.4313,301.014 78.5,303C 78.3333,304.5 78.1667,306 78,307.5C 77.6174,308.056 77.1174,308.389 76.5,308.5C 77.5411,305.458 77.5411,302.458 76.5,299.5C 76.5,299.167 76.5,298.833 76.5,298.5 Z"/></g>
<g><path style="opacity:0.616" fill="#4c140b" d="M 110.5,297.5 C 110.833,297.5 111.167,297.5 111.5,297.5C 112.162,299.304 112.495,301.304 112.5,303.5C 112.602,307.117 111.935,310.45 110.5,313.5C 110.5,308.167 110.5,302.833 110.5,297.5 Z"/></g>
<g><path style="opacity:0.31" fill="#370f07" d="M 76.5,308.5 C 76.4456,310.632 75.4456,311.965 73.5,312.5C 74.0256,310.77 75.0256,309.436 76.5,308.5 Z"/></g>
<g><path style="opacity:0.922" fill="#661610" d="M 73.5,312.5 C 72.8166,314.176 71.4832,314.843 69.5,314.5C 70.5137,313.326 71.847,312.66 73.5,312.5 Z"/></g>
<g><path style="opacity:0.025" fill="#1e0802" d="M 110.5,313.5 C 108.804,318.212 107.137,322.878 105.5,327.5C 104.522,327.189 103.855,326.522 103.5,325.5C 105.874,321.405 108.207,317.405 110.5,313.5 Z"/></g>
<g><path style="opacity:0.259" fill="#210903" d="M 105.5,327.5 C 106.906,327.973 107.573,328.973 107.5,330.5C 106.094,330.027 105.427,329.027 105.5,327.5 Z"/></g>
<g><path style="opacity:0.129" fill="#1d0501" d="M 107.5,330.5 C 109.104,331.287 109.771,332.62 109.5,334.5C 108.326,333.486 107.66,332.153 107.5,330.5 Z"/></g>
<g><path style="opacity:0.314" fill="#350a06" d="M 167.5,299.5 C 167.5,300.833 167.5,302.167 167.5,303.5C 167.5,314.5 167.5,325.5 167.5,336.5C 181.833,336.5 196.167,336.5 210.5,336.5C 210.5,324.833 210.5,313.167 210.5,301.5C 210.5,300.833 210.5,300.167 210.5,299.5C 211.495,311.989 211.829,324.656 211.5,337.5C 196.5,337.5 181.5,337.5 166.5,337.5C 166.171,324.656 166.505,311.989 167.5,299.5 Z"/></g>
<g><path style="opacity:0.106" fill="#230c04" d="M 109.5,334.5 C 111.074,336.102 111.741,338.102 111.5,340.5C 111.167,340.5 110.833,340.5 110.5,340.5C 109.85,338.565 109.517,336.565 109.5,334.5 Z"/></g>
<g><path style="opacity:0.192" fill="#1d0502" d="M 73.5,340.5 C 76.2921,341.392 77.6254,343.392 77.5,346.5C 76.1798,344.537 74.8465,342.537 73.5,340.5 Z"/></g>
<g><path style="opacity:0.69" fill="#4f140c" d="M 110.5,340.5 C 110.833,340.5 111.167,340.5 111.5,340.5C 112.946,347.008 112.613,353.341 110.5,359.5C 110.5,353.167 110.5,346.833 110.5,340.5 Z"/></g>
<g><path style="opacity:0.69" fill="#52120c" d="M 77.5,346.5 C 78.1386,347.097 78.472,347.93 78.5,349C 78.6134,350.699 77.9468,351.866 76.5,352.5C 76.8333,350.5 77.1667,348.5 77.5,346.5 Z"/></g>
<g><path style="opacity:0.161" fill="#120201" d="M 360.5,350.5 C 361.674,351.514 362.34,352.847 362.5,354.5C 360.896,353.713 360.229,352.38 360.5,350.5 Z"/></g>
<g><path style="opacity:0.565" fill="#43120a" d="M 76.5,352.5 C 76.6308,355.367 75.2974,357.033 72.5,357.5C 73.8637,355.809 75.197,354.142 76.5,352.5 Z"/></g>
<g><path style="opacity:0.42" fill="#320e06" d="M 362.5,354.5 C 363.833,355.167 364.833,356.167 365.5,357.5C 363.5,357.5 362.5,356.5 362.5,354.5 Z"/></g>
<g><path style="opacity:0.126" fill="#1a0502" d="M 73.5,340.5 C 72.0783,340.291 70.745,339.791 69.5,339C 57.8381,338.5 46.1714,338.333 34.5,338.5C 34.5,345.167 34.5,351.833 34.5,358.5C 47.2164,358.795 59.883,358.462 72.5,357.5C 72.3893,358.117 72.056,358.617 71.5,359C 58.8377,359.5 46.1711,359.667 33.5,359.5C 33.5,352.167 33.5,344.833 33.5,337.5C 45.8378,337.333 58.1712,337.5 70.5,338C 71.9423,338.377 72.9423,339.21 73.5,340.5 Z"/></g>
<g><path style="opacity:0.051" fill="#160201" d="M 211.5,381.5 C 211.167,381.5 210.833,381.5 210.5,381.5C 210.5,374.5 210.5,367.5 210.5,360.5C 196.167,360.5 181.833,360.5 167.5,360.5C 167.5,367.5 167.5,374.5 167.5,381.5C 167.167,381.5 166.833,381.5 166.5,381.5C 166.5,374.167 166.5,366.833 166.5,359.5C 181.5,359.5 196.5,359.5 211.5,359.5C 211.5,366.833 211.5,374.167 211.5,381.5 Z"/></g>
<g><path style="opacity:0.102" fill="#160401" d="M 110.5,359.5 C 106.987,369.681 100.32,377.014 90.5,381.5C 88.8333,381.5 87.1667,381.5 85.5,381.5C 96.9303,377.739 105.264,370.406 110.5,359.5 Z"/></g>
<g><path style="opacity:0.004" fill="#160302" d="M 327.5,359.5 C 329.341,361.849 330.674,364.515 331.5,367.5C 329.127,365.421 327.794,362.754 327.5,359.5 Z"/></g>
<g><path style="opacity:0.016" fill="#150301" d="M 331.5,367.5 C 334.631,370.129 337.631,372.962 340.5,376C 344.259,377.879 347.925,379.713 351.5,381.5C 350.167,381.5 348.833,381.5 347.5,381.5C 340.639,378.643 335.306,373.976 331.5,367.5 Z"/></g>
</svg>
