<svg width="0" height="0" class="hidden">
  <symbol xmlns="http://www.w3.org/2000/svg" viewBox="0 0 32 32" id="icon-telegram">
    <title></title>
    <g id="icon-telegram">
      <path d="M26.49,29.86H5.5a3.37,3.37,0,0,1-2.47-1,3.35,3.35,0,0,1-1-2.47V5.48A3.36,3.36,0,0,1,3,3,3.37,3.37,0,0,1,5.5,2h21A3.38,3.38,0,0,1,29,3a3.36,3.36,0,0,1,1,2.46V26.37a3.35,3.35,0,0,1-1,2.47A3.38,3.38,0,0,1,26.49,29.86Zm-5.38-6.71a.79.79,0,0,0,.85-.66L24.73,9.24a.55.55,0,0,0-.18-.46.62.62,0,0,0-.41-.17q-.08,0-16.53,6.11a.59.59,0,0,0-.41.59.57.57,0,0,0,.43.52l4,1.24,1.61,4.83a.62.62,0,0,0,.63.43.56.56,0,0,0,.4-.17L16.54,20l4.09,3A.9.9,0,0,0,21.11,23.15ZM13.8,20.71l-1.21-4q8.72-5.55,8.78-5.55c.15,0,.23,0,.23.16a.18.18,0,0,1,0,.06s-2.51,2.3-7.52,6.8Z"></path>
    </g>
  </symbol>
  <symbol role="img" xmlns="http://www.w3.org/2000/svg" viewBox="0 0 24 24" id="icon-facebook">
    <title></title>
    <path d="M22.676 0H1.324C.593 0 0 .593 0 1.324v21.352C0 23.408.593 24 1.324 24h11.494v-9.294H9.689v-3.621h3.129V8.41c0-3.099 1.894-4.785 4.659-4.785 1.325 0 2.464.097 2.796.141v3.24h-1.921c-1.5 0-1.792.721-1.792 1.771v2.311h3.584l-.465 3.63H16.56V24h6.115c.733 0 1.325-.592 1.325-1.324V1.324C24 .593 23.408 0 22.676 0"></path>
  </symbol>
</svg>